<svg width="96" height="44" viewBox="0 0 96 44" fill="none" xmlns="http://www.w3.org/2000/svg">
<g clip-path="url(#clip0_925_7)">
<path d="M11.3047 22.9688H3.72146C2.0867 22.9688 0.696094 23.7545 0.174551 25.3592C0.082793 25.6429 0 26.0031 0 26.3438C0 28.875 5.0625 33.0938 7.59375 33.0938C9.12041 33.0938 10.4013 32.5311 11.5868 31.3461C11.1343 31.9288 10.8585 32.5838 10.7578 33.3121C10.3897 35.9092 10.849 37.6996 12.1938 38.1362C13.4995 38.5602 15.1875 39 16.0312 39C18.5625 39 18.8446 33.2425 17.4197 31.3857L11.3047 22.9688ZM12.8493 21.8466L15.1928 14.6346C15.698 13.0795 16.875 12 18.5625 12C18.861 12 19.2291 12.0327 19.5529 12.1376C21.9602 12.9202 24.4081 19.0385 23.6255 21.4458C23.1541 22.8981 22.2233 23.9422 20.7299 24.7032C21.4233 24.4532 22.1321 24.3931 22.8556 24.5228C25.4396 24.9753 27 25.9651 27 27.3789C27 28.7521 26.8966 30.4929 26.6356 31.2955C25.8536 33.7028 20.2906 32.1925 18.9649 30.263L12.8493 21.8466Z" fill="#895C95"/>
</g>
<path d="M16.22 19.48V20H11.4V19.48L12.5 19.36C12.7133 19.3333 12.84 19.28 12.88 19.2C12.92 19.1067 12.94 18.8333 12.94 18.38V7.54L8.78 18.4H7.42L3.24 7.54V18.38C3.24 18.8333 3.26 19.1067 3.3 19.2C3.34 19.28 3.46667 19.3333 3.68 19.36L4.78 19.48V20H0.96V19.48L2.06 19.36C2.27333 19.3333 2.4 19.28 2.44 19.2C2.48 19.1067 2.5 18.8333 2.5 18.38V8.02C2.5 7.56667 2.48 7.3 2.44 7.22C2.4 7.12667 2.27333 7.06667 2.06 7.04L0.96 6.94V6.4H4.62L8.64 16.9L12.66 6.4H16.22V6.94L15.12 7.04C14.9067 7.06667 14.78 7.12667 14.74 7.22C14.7 7.3 14.68 7.56667 14.68 8.02V18.38C14.68 18.8333 14.7 19.1067 14.74 19.2C14.78 19.28 14.9067 19.3333 15.12 19.36L16.22 19.48ZM22.967 19.48V20H19.167V19.48L20.247 19.36C20.3937 19.3467 20.5004 19.3267 20.567 19.3C20.6337 19.26 20.6937 19.18 20.747 19.06C20.8137 18.9267 20.8937 18.7 20.987 18.38L24.847 6.4H26.107L30.007 18.38C30.1004 18.7 30.1737 18.9267 30.227 19.06C30.2937 19.18 30.3604 19.26 30.427 19.3C30.4937 19.3267 30.5937 19.3467 30.727 19.36L31.827 19.48V20H26.967V19.48L28.067 19.36C28.2804 19.3333 28.3937 19.28 28.407 19.2C28.4337 19.1067 28.3737 18.8333 28.227 18.38L27.407 15.82H22.527L21.707 18.38C21.5604 18.8333 21.4937 19.1067 21.507 19.2C21.5337 19.28 21.6537 19.3333 21.867 19.36L22.967 19.48ZM22.727 15.18H27.207L24.967 8.22L22.727 15.18ZM34.7256 6.94V6.4H40.2856C41.5923 6.4 42.5923 6.71333 43.2856 7.34C43.9923 7.95333 44.3456 8.77333 44.3456 9.8V10.42C44.3456 11.2333 44.119 11.9267 43.6656 12.5C43.2256 13.06 42.5923 13.4467 41.7656 13.66L44.3256 18.38C44.499 18.7 44.6256 18.9267 44.7056 19.06C44.7856 19.18 44.859 19.26 44.9256 19.3C45.0056 19.3267 45.1123 19.3467 45.2456 19.36L46.1456 19.48V20H43.1256L39.9656 13.84H38.0056V18.38C38.0056 18.8467 38.0256 19.12 38.0656 19.2C38.1056 19.28 38.2323 19.3333 38.4456 19.36L39.5456 19.48V20H34.7256V19.48L35.8256 19.36C36.039 19.3333 36.1656 19.28 36.2056 19.2C36.2456 19.12 36.2656 18.8467 36.2656 18.38V8.02C36.2656 7.55333 36.2456 7.28 36.2056 7.2C36.1656 7.12 36.039 7.06667 35.8256 7.04L34.7256 6.94ZM40.2856 7.04H38.0056V13.2H40.2856C40.979 13.2 41.519 12.98 41.9056 12.54C42.3056 12.0867 42.5056 11.4067 42.5056 10.5V9.72C42.5056 8.81333 42.3056 8.14 41.9056 7.7C41.519 7.26 40.979 7.04 40.2856 7.04ZM49.2256 6.94V6.4H54.0456V6.94L52.9456 7.04C52.7323 7.06667 52.6056 7.12 52.5656 7.2C52.5256 7.28 52.5056 7.55333 52.5056 8.02V18.38C52.5056 18.8467 52.5256 19.12 52.5656 19.2C52.6056 19.28 52.7323 19.3333 52.9456 19.36L54.0456 19.48V20H49.2256V19.48L50.3256 19.36C50.539 19.3333 50.6656 19.28 50.7056 19.2C50.7456 19.12 50.7656 18.8467 50.7656 18.38V8.02C50.7656 7.55333 50.7456 7.28 50.7056 7.2C50.6656 7.12 50.539 7.06667 50.3256 7.04L49.2256 6.94ZM66.2239 6.94V6.4H70.0439V6.94L68.9439 7.04C68.7306 7.06667 68.6039 7.12667 68.5639 7.22C68.5239 7.3 68.5039 7.56667 68.5039 8.02V20H67.5239L60.2439 7.72V18.38C60.2439 18.8333 60.2639 19.1067 60.3039 19.2C60.3439 19.28 60.4706 19.3333 60.6839 19.36L61.7839 19.48V20H57.9639V19.48L59.0639 19.36C59.2772 19.3333 59.4039 19.28 59.4439 19.2C59.4839 19.1067 59.5039 18.8333 59.5039 18.38V8.02C59.5039 7.56667 59.4839 7.3 59.4439 7.22C59.4039 7.12667 59.2772 7.06667 59.0639 7.04L57.9639 6.94V6.4H61.4239L67.7639 17.12V8.02C67.7639 7.56667 67.7439 7.3 67.7039 7.22C67.6639 7.12667 67.5372 7.06667 67.3239 7.04L66.2239 6.94ZM76.4358 19.48V20H72.6358V19.48L73.7158 19.36C73.8624 19.3467 73.9691 19.3267 74.0358 19.3C74.1024 19.26 74.1624 19.18 74.2158 19.06C74.2824 18.9267 74.3624 18.7 74.4558 18.38L78.3158 6.4H79.5758L83.4758 18.38C83.5691 18.7 83.6424 18.9267 83.6958 19.06C83.7624 19.18 83.8291 19.26 83.8958 19.3C83.9624 19.3267 84.0624 19.3467 84.1958 19.36L85.2958 19.48V20H80.4358V19.48L81.5358 19.36C81.7491 19.3333 81.8624 19.28 81.8758 19.2C81.9024 19.1067 81.8424 18.8333 81.6958 18.38L80.8758 15.82H75.9958L75.1758 18.38C75.0291 18.8333 74.9624 19.1067 74.9758 19.2C75.0024 19.28 75.1224 19.3333 75.3358 19.36L76.4358 19.48ZM76.1958 15.18H80.6758L78.4358 8.22L76.1958 15.18Z" fill="white"/>
<path d="M22.4 39.56C23.2933 39.56 24.0133 39.34 24.56 38.9C25.12 38.46 25.4 37.8133 25.4 36.96C25.4 36.28 25.1933 35.7133 24.78 35.26C24.3667 34.7933 23.6467 34.42 22.62 34.14L21.24 33.74C20.2267 33.46 19.4533 32.9867 18.92 32.32C18.3867 31.6533 18.12 30.84 18.12 29.88C18.12 29.24 18.2667 28.64 18.56 28.08C18.8667 27.52 19.3267 27.0667 19.94 26.72C20.5667 26.3733 21.36 26.2 22.32 26.2C23.3867 26.2 24.2467 26.4 24.9 26.8C25.5533 27.1867 26.0067 27.6933 26.26 28.32C26.5133 28.9467 26.5733 29.62 26.44 30.34L24.76 30.7C24.9333 29.46 24.8067 28.5067 24.38 27.84C23.9667 27.1733 23.2467 26.84 22.22 26.84C21.4067 26.84 20.7667 27.06 20.3 27.5C19.8333 27.9267 19.6 28.5533 19.6 29.38C19.6 30.0333 19.7867 30.5933 20.16 31.06C20.5333 31.5133 21.1933 31.8733 22.14 32.14L23.52 32.54C25.7467 33.1533 26.86 34.4533 26.86 36.44C26.86 37.1467 26.6933 37.7867 26.36 38.36C26.04 38.92 25.5467 39.3667 24.88 39.7C24.2267 40.0333 23.4 40.2 22.4 40.2C21.7067 40.2 21.04 40.0933 20.4 39.88C19.7733 39.6667 19.2333 39.3 18.78 38.78C18.34 38.26 18.0467 37.54 17.9 36.62L19.1 36.22C19.1667 37.1 19.36 37.78 19.68 38.26C20 38.74 20.4 39.08 20.88 39.28C21.36 39.4667 21.8667 39.56 22.4 39.56ZM30.917 26.92V26.4H35.737V26.92L34.637 27.04C34.4237 27.0533 34.297 27.1067 34.257 27.2C34.217 27.28 34.197 27.5533 34.197 28.02V33.9L39.197 27.9C39.5304 27.5133 39.697 27.28 39.697 27.2C39.7104 27.1067 39.6037 27.0533 39.377 27.04L38.357 26.92V26.4H42.157V26.92L41.137 27.04C41.0037 27.0533 40.897 27.08 40.817 27.12C40.737 27.1467 40.6437 27.22 40.537 27.34C40.4437 27.4467 40.2837 27.6333 40.057 27.9L36.937 31.66L40.737 38.38C40.9104 38.6867 41.037 38.9067 41.117 39.04C41.2104 39.1733 41.3037 39.26 41.397 39.3C41.4904 39.3267 41.617 39.3467 41.777 39.36L42.737 39.48V40H39.617L35.777 33.06L34.197 34.94V38.38C34.197 38.8467 34.217 39.12 34.257 39.2C34.297 39.28 34.4237 39.3333 34.637 39.36L35.737 39.48V40H30.917V39.48L32.017 39.36C32.2304 39.3333 32.357 39.28 32.397 39.2C32.437 39.12 32.457 38.8467 32.457 38.38V28.02C32.457 27.5533 32.437 27.28 32.397 27.2C32.357 27.1067 32.2304 27.0533 32.017 27.04L30.917 26.92ZM45.7881 26.94V26.4H50.6081V26.94L49.5081 27.04C49.2948 27.0667 49.1681 27.12 49.1281 27.2C49.0881 27.28 49.0681 27.5533 49.0681 28.02V38.38C49.0681 38.8467 49.0881 39.12 49.1281 39.2C49.1681 39.28 49.2948 39.3333 49.5081 39.36L50.6081 39.48V40H45.7881V39.48L46.8881 39.36C47.1015 39.3333 47.2281 39.28 47.2681 39.2C47.3081 39.12 47.3281 38.8467 47.3281 38.38V28.02C47.3281 27.5533 47.3081 27.28 47.2681 27.2C47.2281 27.12 47.1015 27.0667 46.8881 27.04L45.7881 26.94ZM54.5264 26.94V26.4H60.0864C61.3931 26.4 62.3931 26.7133 63.0864 27.34C63.7931 27.9533 64.1464 28.7733 64.1464 29.8V30.42C64.1464 31.2333 63.9197 31.9267 63.4664 32.5C63.0264 33.06 62.3931 33.4467 61.5664 33.66L64.1264 38.38C64.2997 38.7 64.4264 38.9267 64.5064 39.06C64.5864 39.18 64.6597 39.26 64.7264 39.3C64.8064 39.3267 64.9131 39.3467 65.0464 39.36L65.9464 39.48V40H62.9264L59.7664 33.84H57.8064V38.38C57.8064 38.8467 57.8264 39.12 57.8664 39.2C57.9064 39.28 58.0331 39.3333 58.2464 39.36L59.3464 39.48V40H54.5264V39.48L55.6264 39.36C55.8397 39.3333 55.9664 39.28 56.0064 39.2C56.0464 39.12 56.0664 38.8467 56.0664 38.38V28.02C56.0664 27.5533 56.0464 27.28 56.0064 27.2C55.9664 27.12 55.8397 27.0667 55.6264 27.04L54.5264 26.94ZM60.0864 27.04H57.8064V33.2H60.0864C60.7797 33.2 61.3197 32.98 61.7064 32.54C62.1064 32.0867 62.3064 31.4067 62.3064 30.5V29.72C62.3064 28.8133 62.1064 28.14 61.7064 27.7C61.3197 27.26 60.7797 27.04 60.0864 27.04ZM69.0264 26.92V26.4H73.8464V26.92L72.7464 27.04C72.5331 27.0533 72.4064 27.1067 72.3664 27.2C72.3264 27.28 72.3064 27.5533 72.3064 28.02V33.9L77.3064 27.9C77.6397 27.5133 77.8064 27.28 77.8064 27.2C77.8197 27.1067 77.7131 27.0533 77.4864 27.04L76.4664 26.92V26.4H80.2664V26.92L79.2464 27.04C79.1131 27.0533 79.0064 27.08 78.9264 27.12C78.8464 27.1467 78.7531 27.22 78.6464 27.34C78.5531 27.4467 78.3931 27.6333 78.1664 27.9L75.0464 31.66L78.8464 38.38C79.0197 38.6867 79.1464 38.9067 79.2264 39.04C79.3197 39.1733 79.4131 39.26 79.5064 39.3C79.5997 39.3267 79.7264 39.3467 79.8864 39.36L80.8464 39.48V40H77.7264L73.8864 33.06L72.3064 34.94V38.38C72.3064 38.8467 72.3264 39.12 72.3664 39.2C72.4064 39.28 72.5331 39.3333 72.7464 39.36L73.8464 39.48V40H69.0264V39.48L70.1264 39.36C70.3397 39.3333 70.4664 39.28 70.5064 39.2C70.5464 39.12 70.5664 38.8467 70.5664 38.38V28.02C70.5664 27.5533 70.5464 27.28 70.5064 27.2C70.4664 27.1067 70.3397 27.0533 70.1264 27.04L69.0264 26.92ZM94.4064 32.44V33.94C94.4064 35.8867 93.9597 37.42 93.0664 38.54C92.1731 39.6467 90.8931 40.2 89.2264 40.2C87.5464 40.2 86.2597 39.6467 85.3664 38.54C84.4864 37.42 84.0464 35.8867 84.0464 33.94V32.44C84.0464 30.5067 84.4864 28.9867 85.3664 27.88C86.2597 26.76 87.5464 26.2 89.2264 26.2C90.8931 26.2 92.1731 26.76 93.0664 27.88C93.9597 28.9867 94.4064 30.5067 94.4064 32.44ZM92.5064 31.44C92.5064 29.7733 92.2264 28.5933 91.6664 27.9C91.1197 27.1933 90.3064 26.84 89.2264 26.84C88.1464 26.84 87.3264 27.1933 86.7664 27.9C86.2197 28.5933 85.9464 29.7733 85.9464 31.44V34.94C85.9464 36.6067 86.2197 37.7933 86.7664 38.5C87.3264 39.2067 88.1464 39.56 89.2264 39.56C90.3064 39.56 91.1197 39.2067 91.6664 38.5C92.2264 37.7933 92.5064 36.6067 92.5064 34.94V31.44Z" fill="white"/>
<defs>
<clipPath id="clip0_925_7">
<rect width="27" height="27" fill="white" transform="translate(0 12)"/>
</clipPath>
</defs>
</svg>
