<svg width="104" height="44" viewBox="0 0 104 44" fill="none" xmlns="http://www.w3.org/2000/svg">
<path d="M12.3738 28.125H6.75664C5.5457 28.125 4.51563 28.707 4.1293 29.8957C4.06133 30.1059 4 30.3727 4 30.625C4 32.5 7.75 35.625 9.625 35.625C10.7559 35.625 11.7047 35.2082 12.5828 34.3305C12.2477 34.7621 12.0434 35.2473 11.9688 35.7867C11.6961 37.7105 12.0363 39.0367 13.0324 39.3602C13.9996 39.6742 15.25 40 15.875 40C17.75 40 17.959 35.7352 16.9035 34.3598L12.3738 28.125ZM13.518 27.2938L15.2539 21.9516C15.6281 20.7996 16.5 20 17.75 20C17.9711 20 18.2437 20.0242 18.4836 20.102C20.2668 20.6816 22.0801 25.2137 21.5004 26.9969C21.1512 28.0727 20.4617 28.8461 19.3555 29.4098C19.8691 29.2246 20.3941 29.1801 20.9301 29.2762C22.8441 29.6113 24 30.3445 24 31.3918C24 32.409 23.9234 33.6984 23.7301 34.293C23.1508 36.0762 19.0301 34.9574 18.048 33.5281L13.518 27.2938Z" fill="#895C95"/>
<path d="M24.22 19.48V20H19.4V19.48L20.5 19.36C20.7133 19.3333 20.84 19.28 20.88 19.2C20.92 19.1067 20.94 18.8333 20.94 18.38V7.54L16.78 18.4H15.42L11.24 7.54V18.38C11.24 18.8333 11.26 19.1067 11.3 19.2C11.34 19.28 11.4667 19.3333 11.68 19.36L12.78 19.48V20H8.96V19.48L10.06 19.36C10.2733 19.3333 10.4 19.28 10.44 19.2C10.48 19.1067 10.5 18.8333 10.5 18.38V8.02C10.5 7.56667 10.48 7.3 10.44 7.22C10.4 7.12667 10.2733 7.06667 10.06 7.04L8.96 6.94V6.4H12.62L16.64 16.9L20.66 6.4H24.22V6.94L23.12 7.04C22.9067 7.06667 22.78 7.12667 22.74 7.22C22.7 7.3 22.68 7.56667 22.68 8.02V18.38C22.68 18.8333 22.7 19.1067 22.74 19.2C22.78 19.28 22.9067 19.3333 23.12 19.36L24.22 19.48ZM30.967 19.48V20H27.167V19.48L28.247 19.36C28.3937 19.3467 28.5004 19.3267 28.567 19.3C28.6337 19.26 28.6937 19.18 28.747 19.06C28.8137 18.9267 28.8937 18.7 28.987 18.38L32.847 6.4H34.107L38.007 18.38C38.1004 18.7 38.1737 18.9267 38.227 19.06C38.2937 19.18 38.3604 19.26 38.427 19.3C38.4937 19.3267 38.5937 19.3467 38.727 19.36L39.827 19.48V20H34.967V19.48L36.067 19.36C36.2804 19.3333 36.3937 19.28 36.407 19.2C36.4337 19.1067 36.3737 18.8333 36.227 18.38L35.407 15.82H30.527L29.707 18.38C29.5604 18.8333 29.4937 19.1067 29.507 19.2C29.5337 19.28 29.6537 19.3333 29.867 19.36L30.967 19.48ZM30.727 15.18H35.207L32.967 8.22L30.727 15.18ZM42.7256 6.94V6.4H48.2856C49.5923 6.4 50.5923 6.71333 51.2856 7.34C51.9923 7.95333 52.3456 8.77333 52.3456 9.8V10.42C52.3456 11.2333 52.119 11.9267 51.6656 12.5C51.2256 13.06 50.5923 13.4467 49.7656 13.66L52.3256 18.38C52.499 18.7 52.6256 18.9267 52.7056 19.06C52.7856 19.18 52.859 19.26 52.9256 19.3C53.0056 19.3267 53.1123 19.3467 53.2456 19.36L54.1456 19.48V20H51.1256L47.9656 13.84H46.0056V18.38C46.0056 18.8467 46.0256 19.12 46.0656 19.2C46.1056 19.28 46.2323 19.3333 46.4456 19.36L47.5456 19.48V20H42.7256V19.48L43.8256 19.36C44.039 19.3333 44.1656 19.28 44.2056 19.2C44.2456 19.12 44.2656 18.8467 44.2656 18.38V8.02C44.2656 7.55333 44.2456 7.28 44.2056 7.2C44.1656 7.12 44.039 7.06667 43.8256 7.04L42.7256 6.94ZM48.2856 7.04H46.0056V13.2H48.2856C48.979 13.2 49.519 12.98 49.9056 12.54C50.3056 12.0867 50.5056 11.4067 50.5056 10.5V9.72C50.5056 8.81333 50.3056 8.14 49.9056 7.7C49.519 7.26 48.979 7.04 48.2856 7.04ZM57.2256 6.94V6.4H62.0456V6.94L60.9456 7.04C60.7323 7.06667 60.6056 7.12 60.5656 7.2C60.5256 7.28 60.5056 7.55333 60.5056 8.02V18.38C60.5056 18.8467 60.5256 19.12 60.5656 19.2C60.6056 19.28 60.7323 19.3333 60.9456 19.36L62.0456 19.48V20H57.2256V19.48L58.3256 19.36C58.539 19.3333 58.6656 19.28 58.7056 19.2C58.7456 19.12 58.7656 18.8467 58.7656 18.38V8.02C58.7656 7.55333 58.7456 7.28 58.7056 7.2C58.6656 7.12 58.539 7.06667 58.3256 7.04L57.2256 6.94ZM74.2239 6.94V6.4H78.0439V6.94L76.9439 7.04C76.7306 7.06667 76.6039 7.12667 76.5639 7.22C76.5239 7.3 76.5039 7.56667 76.5039 8.02V20H75.5239L68.2439 7.72V18.38C68.2439 18.8333 68.2639 19.1067 68.3039 19.2C68.3439 19.28 68.4706 19.3333 68.6839 19.36L69.7839 19.48V20H65.9639V19.48L67.0639 19.36C67.2772 19.3333 67.4039 19.28 67.4439 19.2C67.4839 19.1067 67.5039 18.8333 67.5039 18.38V8.02C67.5039 7.56667 67.4839 7.3 67.4439 7.22C67.4039 7.12667 67.2772 7.06667 67.0639 7.04L65.9639 6.94V6.4H69.4239L75.7639 17.12V8.02C75.7639 7.56667 75.7439 7.3 75.7039 7.22C75.6639 7.12667 75.5372 7.06667 75.3239 7.04L74.2239 6.94ZM84.4358 19.48V20H80.6358V19.48L81.7158 19.36C81.8624 19.3467 81.9691 19.3267 82.0358 19.3C82.1024 19.26 82.1624 19.18 82.2158 19.06C82.2824 18.9267 82.3624 18.7 82.4558 18.38L86.3158 6.4H87.5758L91.4758 18.38C91.5691 18.7 91.6424 18.9267 91.6958 19.06C91.7624 19.18 91.8291 19.26 91.8958 19.3C91.9624 19.3267 92.0624 19.3467 92.1958 19.36L93.2958 19.48V20H88.4358V19.48L89.5358 19.36C89.7491 19.3333 89.8624 19.28 89.8758 19.2C89.9024 19.1067 89.8424 18.8333 89.6958 18.38L88.8758 15.82H83.9958L83.1758 18.38C83.0291 18.8333 82.9624 19.1067 82.9758 19.2C83.0024 19.28 83.1224 19.3333 83.3358 19.36L84.4358 19.48ZM84.1958 15.18H88.6758L86.4358 8.22L84.1958 15.18Z" fill="black"/>
<path d="M30.4 39.56C31.2933 39.56 32.0133 39.34 32.56 38.9C33.12 38.46 33.4 37.8133 33.4 36.96C33.4 36.28 33.1933 35.7133 32.78 35.26C32.3667 34.7933 31.6467 34.42 30.62 34.14L29.24 33.74C28.2267 33.46 27.4533 32.9867 26.92 32.32C26.3867 31.6533 26.12 30.84 26.12 29.88C26.12 29.24 26.2667 28.64 26.56 28.08C26.8667 27.52 27.3267 27.0667 27.94 26.72C28.5667 26.3733 29.36 26.2 30.32 26.2C31.3867 26.2 32.2467 26.4 32.9 26.8C33.5533 27.1867 34.0067 27.6933 34.26 28.32C34.5133 28.9467 34.5733 29.62 34.44 30.34L32.76 30.7C32.9333 29.46 32.8067 28.5067 32.38 27.84C31.9667 27.1733 31.2467 26.84 30.22 26.84C29.4067 26.84 28.7667 27.06 28.3 27.5C27.8333 27.9267 27.6 28.5533 27.6 29.38C27.6 30.0333 27.7867 30.5933 28.16 31.06C28.5333 31.5133 29.1933 31.8733 30.14 32.14L31.52 32.54C33.7467 33.1533 34.86 34.4533 34.86 36.44C34.86 37.1467 34.6933 37.7867 34.36 38.36C34.04 38.92 33.5467 39.3667 32.88 39.7C32.2267 40.0333 31.4 40.2 30.4 40.2C29.7067 40.2 29.04 40.0933 28.4 39.88C27.7733 39.6667 27.2333 39.3 26.78 38.78C26.34 38.26 26.0467 37.54 25.9 36.62L27.1 36.22C27.1667 37.1 27.36 37.78 27.68 38.26C28 38.74 28.4 39.08 28.88 39.28C29.36 39.4667 29.8667 39.56 30.4 39.56ZM38.917 26.92V26.4H43.737V26.92L42.637 27.04C42.4237 27.0533 42.297 27.1067 42.257 27.2C42.217 27.28 42.197 27.5533 42.197 28.02V33.9L47.197 27.9C47.5304 27.5133 47.697 27.28 47.697 27.2C47.7104 27.1067 47.6037 27.0533 47.377 27.04L46.357 26.92V26.4H50.157V26.92L49.137 27.04C49.0037 27.0533 48.897 27.08 48.817 27.12C48.737 27.1467 48.6437 27.22 48.537 27.34C48.4437 27.4467 48.2837 27.6333 48.057 27.9L44.937 31.66L48.737 38.38C48.9104 38.6867 49.037 38.9067 49.117 39.04C49.2104 39.1733 49.3037 39.26 49.397 39.3C49.4904 39.3267 49.617 39.3467 49.777 39.36L50.737 39.48V40H47.617L43.777 33.06L42.197 34.94V38.38C42.197 38.8467 42.217 39.12 42.257 39.2C42.297 39.28 42.4237 39.3333 42.637 39.36L43.737 39.48V40H38.917V39.48L40.017 39.36C40.2304 39.3333 40.357 39.28 40.397 39.2C40.437 39.12 40.457 38.8467 40.457 38.38V28.02C40.457 27.5533 40.437 27.28 40.397 27.2C40.357 27.1067 40.2304 27.0533 40.017 27.04L38.917 26.92ZM53.7881 26.94V26.4H58.6081V26.94L57.5081 27.04C57.2948 27.0667 57.1681 27.12 57.1281 27.2C57.0881 27.28 57.0681 27.5533 57.0681 28.02V38.38C57.0681 38.8467 57.0881 39.12 57.1281 39.2C57.1681 39.28 57.2948 39.3333 57.5081 39.36L58.6081 39.48V40H53.7881V39.48L54.8881 39.36C55.1015 39.3333 55.2281 39.28 55.2681 39.2C55.3081 39.12 55.3281 38.8467 55.3281 38.38V28.02C55.3281 27.5533 55.3081 27.28 55.2681 27.2C55.2281 27.12 55.1015 27.0667 54.8881 27.04L53.7881 26.94ZM62.5264 26.94V26.4H68.0864C69.3931 26.4 70.3931 26.7133 71.0864 27.34C71.7931 27.9533 72.1464 28.7733 72.1464 29.8V30.42C72.1464 31.2333 71.9197 31.9267 71.4664 32.5C71.0264 33.06 70.3931 33.4467 69.5664 33.66L72.1264 38.38C72.2997 38.7 72.4264 38.9267 72.5064 39.06C72.5864 39.18 72.6597 39.26 72.7264 39.3C72.8064 39.3267 72.9131 39.3467 73.0464 39.36L73.9464 39.48V40H70.9264L67.7664 33.84H65.8064V38.38C65.8064 38.8467 65.8264 39.12 65.8664 39.2C65.9064 39.28 66.0331 39.3333 66.2464 39.36L67.3464 39.48V40H62.5264V39.48L63.6264 39.36C63.8397 39.3333 63.9664 39.28 64.0064 39.2C64.0464 39.12 64.0664 38.8467 64.0664 38.38V28.02C64.0664 27.5533 64.0464 27.28 64.0064 27.2C63.9664 27.12 63.8397 27.0667 63.6264 27.04L62.5264 26.94ZM68.0864 27.04H65.8064V33.2H68.0864C68.7797 33.2 69.3197 32.98 69.7064 32.54C70.1064 32.0867 70.3064 31.4067 70.3064 30.5V29.72C70.3064 28.8133 70.1064 28.14 69.7064 27.7C69.3197 27.26 68.7797 27.04 68.0864 27.04ZM77.0264 26.92V26.4H81.8464V26.92L80.7464 27.04C80.5331 27.0533 80.4064 27.1067 80.3664 27.2C80.3264 27.28 80.3064 27.5533 80.3064 28.02V33.9L85.3064 27.9C85.6397 27.5133 85.8064 27.28 85.8064 27.2C85.8197 27.1067 85.7131 27.0533 85.4864 27.04L84.4664 26.92V26.4H88.2664V26.92L87.2464 27.04C87.1131 27.0533 87.0064 27.08 86.9264 27.12C86.8464 27.1467 86.7531 27.22 86.6464 27.34C86.5531 27.4467 86.3931 27.6333 86.1664 27.9L83.0464 31.66L86.8464 38.38C87.0197 38.6867 87.1464 38.9067 87.2264 39.04C87.3197 39.1733 87.4131 39.26 87.5064 39.3C87.5997 39.3267 87.7264 39.3467 87.8864 39.36L88.8464 39.48V40H85.7264L81.8864 33.06L80.3064 34.94V38.38C80.3064 38.8467 80.3264 39.12 80.3664 39.2C80.4064 39.28 80.5331 39.3333 80.7464 39.36L81.8464 39.48V40H77.0264V39.48L78.1264 39.36C78.3397 39.3333 78.4664 39.28 78.5064 39.2C78.5464 39.12 78.5664 38.8467 78.5664 38.38V28.02C78.5664 27.5533 78.5464 27.28 78.5064 27.2C78.4664 27.1067 78.3397 27.0533 78.1264 27.04L77.0264 26.92ZM102.406 32.44V33.94C102.406 35.8867 101.96 37.42 101.066 38.54C100.173 39.6467 98.8931 40.2 97.2264 40.2C95.5464 40.2 94.2597 39.6467 93.3664 38.54C92.4864 37.42 92.0464 35.8867 92.0464 33.94V32.44C92.0464 30.5067 92.4864 28.9867 93.3664 27.88C94.2597 26.76 95.5464 26.2 97.2264 26.2C98.8931 26.2 100.173 26.76 101.066 27.88C101.96 28.9867 102.406 30.5067 102.406 32.44ZM100.506 31.44C100.506 29.7733 100.226 28.5933 99.6664 27.9C99.1197 27.1933 98.3064 26.84 97.2264 26.84C96.1464 26.84 95.3264 27.1933 94.7664 27.9C94.2197 28.5933 93.9464 29.7733 93.9464 31.44V34.94C93.9464 36.6067 94.2197 37.7933 94.7664 38.5C95.3264 39.2067 96.1464 39.56 97.2264 39.56C98.3064 39.56 99.1197 39.2067 99.6664 38.5C100.226 37.7933 100.506 36.6067 100.506 34.94V31.44Z" fill="black"/>
</svg>
