<?xml version="1.0" encoding="UTF-8"?> <svg xmlns="http://www.w3.org/2000/svg" width="40" height="40" viewBox="0 0 40 40" fill="none"> <path d="M20 0C8.95441 0 0 8.95441 0 20C0 31.0456 8.95441 40 20 40C31.0456 40 40 31.0456 40 20C40 8.95441 31.0456 0 20 0ZM31.9642 11.7136C31.9731 11.7136 31.9809 11.7184 31.9898 11.7189L20.8294 22.8792C20.4575 23.2511 19.7988 23.2519 19.4269 22.8784L8.26209 11.7136H31.9642ZM7.48378 12.4603C7.48378 12.4542 7.48702 12.4493 7.48702 12.4436L15.0734 20.03L7.48378 27.6196V12.4603ZM8.23045 28.4949C8.19598 28.4949 8.16637 28.4799 8.13311 28.4754L15.8258 20.7828L18.6742 23.6312C19.0615 24.0185 19.5778 24.2314 20.1282 24.2314C20.6789 24.2314 21.1944 24.0177 21.5818 23.6312L24.3381 20.8748L31.9581 28.4949H8.23045ZM32.7109 27.7425L25.0908 20.1225L32.7109 12.5028V27.7425Z" fill="#375438"></path> </svg> 