<?xml version="1.0" encoding="UTF-8"?> <svg xmlns="http://www.w3.org/2000/svg" width="43" height="44" viewBox="0 0 43 44" fill="none"> <path d="M22.3754 9.72852C16.3848 9.72852 11.5129 14.5999 11.5107 20.588C11.5099 22.6402 12.0841 24.6384 13.171 26.3676L13.4291 26.7783L12.3322 30.786L16.4423 29.7077L16.8391 29.9432C18.5064 30.9329 20.4178 31.4561 22.3667 31.457H22.3711C28.3569 31.457 33.2287 26.5851 33.2314 20.5967C33.2327 17.6947 32.1039 14.9662 30.0534 12.9135C28.0029 10.8604 25.2761 9.72939 22.3754 9.72852ZM28.7637 25.2571C28.4916 26.0196 27.1871 26.7159 26.5601 26.8092C25.9977 26.8934 25.2857 26.9283 24.504 26.6797C24.03 26.5293 23.4218 26.3283 22.6427 25.9922C19.367 24.5782 17.228 21.2803 17.0649 21.0628C16.9019 20.8448 15.7317 19.2926 15.7317 17.6855C15.7317 16.0784 16.5749 15.2888 16.8744 14.9618C17.1735 14.6348 17.5275 14.5533 17.7451 14.5533C17.9627 14.5533 18.1807 14.5555 18.3708 14.5646C18.5713 14.5746 18.8403 14.4888 19.1054 15.1249C19.3775 15.7789 20.0306 17.3855 20.1121 17.549C20.1937 17.7125 20.2482 17.9031 20.1392 18.1211C20.0302 18.3386 19.9761 18.4751 19.8126 18.6656C19.6491 18.8562 19.4699 19.0912 19.323 19.2377C19.1595 19.4003 18.9894 19.5773 19.18 19.9039C19.3705 20.2309 20.0258 21.2999 20.9963 22.1654C22.2433 23.2776 23.2954 23.6225 23.6219 23.786C23.9485 23.9495 24.139 23.922 24.3291 23.7045C24.5197 23.4865 25.1453 22.7509 25.3629 22.4244C25.5804 22.0978 25.798 22.1519 26.0975 22.2609C26.3966 22.3699 28.002 23.1595 28.3285 23.323C28.6551 23.4865 28.8727 23.568 28.9542 23.7045C29.0357 23.8405 29.0357 24.4945 28.7637 25.2571Z" fill="#375438"></path> <path d="M21.5 0.624023C9.62599 0.624023 0 10.25 0 22.124C0 33.998 9.62599 43.624 21.5 43.624C33.374 43.624 43 33.998 43 22.124C43 10.25 33.374 0.624023 21.5 0.624023ZM22.3711 33.6636C22.3707 33.6636 22.3716 33.6636 22.3711 33.6636H22.3659C20.1789 33.6627 18.0303 33.1143 16.1219 32.0731L9.19523 33.8903L11.0491 27.1193C9.90547 25.1377 9.30379 22.8896 9.3051 20.5871C9.30728 13.3827 15.1693 7.52153 22.3711 7.52153C25.8665 7.52284 29.1474 8.88359 31.6143 11.3535C34.0812 13.823 35.4393 17.1061 35.4376 20.5976C35.4345 27.802 29.5725 33.6636 22.3711 33.6636Z" fill="#375438"></path> </svg> 